<?xml version="1.0" encoding="UTF-8" standalone="no"?>
<!DOCTYPE svg PUBLIC "-//W3C//DTD SVG 1.1//EN"
 "http://www.w3.org/Graphics/SVG/1.1/DTD/svg11.dtd">
<!-- Generated by graphviz version 2.38.0 (20140413.2041)
 -->
<!-- Title: local_law Pages: 1 -->
<svg width="1694pt" height="1321pt"
 viewBox="0.00 0.00 1693.54 1320.69" xmlns="http://www.w3.org/2000/svg" xmlns:xlink="http://www.w3.org/1999/xlink">
<g id="graph0" class="graph" transform="scale(1 1) rotate(0) translate(4 1316.69)">
<title>local_law</title>
<polygon fill="white" stroke="none" points="-4,4 -4,-1316.69 1689.54,-1316.69 1689.54,4 -4,4"/>
<g id="clust1" class="cluster"><title>cluster_legislator</title>
<polygon fill="none" stroke="black" points="1171.54,-1206.69 1171.54,-1304.69 1347.54,-1304.69 1347.54,-1206.69 1171.54,-1206.69"/>
<text text-anchor="middle" x="1259.54" y="-1289.49" font-family="Times,serif" font-size="14.00">Legislator</text>
</g>
<g id="clust2" class="cluster"><title>cluster_chair</title>
<polygon fill="none" stroke="black" points="466.542,-1206.69 466.542,-1304.69 764.542,-1304.69 764.542,-1206.69 466.542,-1206.69"/>
<text text-anchor="middle" x="615.542" y="-1289.49" font-family="Times,serif" font-size="14.00">Legislative Body Chair</text>
</g>
<g id="clust3" class="cluster"><title>cluster_committee</title>
<polygon fill="none" stroke="black" points="15.5423,-682.689 15.5423,-1173.69 163.542,-1173.69 163.542,-682.689 15.5423,-682.689"/>
<text text-anchor="middle" x="89.5423" y="-1158.49" font-family="Times,serif" font-size="14.00">Committee</text>
</g>
<g id="clust4" class="cluster"><title>cluster_legislature</title>
<polygon fill="none" stroke="black" points="901.542,-551.689 901.542,-1173.69 1203.54,-1173.69 1203.54,-551.689 901.542,-551.689"/>
<text text-anchor="middle" x="1052.54" y="-1158.49" font-family="Times,serif" font-size="14.00">Legislative Body</text>
</g>
<g id="clust5" class="cluster"><title>cluster_executive</title>
<polygon fill="none" stroke="black" points="481.542,-1075.69 481.542,-1173.69 877.542,-1173.69 877.542,-1075.69 481.542,-1075.69"/>
<text text-anchor="middle" x="679.542" y="-1158.49" font-family="Times,serif" font-size="14.00">Executive</text>
</g>
<g id="clust6" class="cluster"><title>cluster_referendum</title>
<polygon fill="none" stroke="black" points="427.542,-377.689 427.542,-780.689 661.542,-780.689 661.542,-377.689 427.542,-377.689"/>
<text text-anchor="middle" x="544.542" y="-765.489" font-family="Times,serif" font-size="14.00">Voters</text>
</g>
<g id="clust7" class="cluster"><title>cluster_attorney</title>
<polygon fill="none" stroke="black" points="1211.54,-1075.69 1211.54,-1173.69 1453.54,-1173.69 1453.54,-1075.69 1211.54,-1075.69"/>
<text text-anchor="middle" x="1332.54" y="-1158.49" font-family="Times,serif" font-size="14.00">Municipal Attorney</text>
</g>
<g id="clust8" class="cluster"><title>cluster_proposed_branch</title>
<polygon fill="#aaaaff" stroke="#aaaaff" points="1218.54,-944.689 1218.54,-1042.69 1416.54,-1042.69 1416.54,-944.689 1218.54,-944.689"/>
<text text-anchor="middle" x="1317.54" y="-1027.49" font-family="Times,serif" font-size="14.00">Public Proposed Law Branch</text>
</g>
<g id="clust9" class="cluster"><title>cluster_clerk</title>
<polygon fill="none" stroke="black" points="967.542,-8 967.542,-179 1233.54,-179 1233.54,-8 967.542,-8"/>
<text text-anchor="middle" x="1100.54" y="-163.8" font-family="Times,serif" font-size="14.00">Legislative Clerk</text>
</g>
<g id="clust10" class="cluster"><title>cluster_adopted_branch</title>
<polygon fill="#aaffaa" stroke="#aaffaa" points="1211.54,-682.689 1211.54,-911.689 1459.54,-911.689 1459.54,-682.689 1211.54,-682.689"/>
<text text-anchor="middle" x="1335.54" y="-896.489" font-family="Times,serif" font-size="14.00">Adopted Branch</text>
</g>
<g id="clust11" class="cluster"><title>cluster_official_branch</title>
<polygon fill="#ffffaa" stroke="#ffffaa" points="1241.54,-81 1241.54,-649.689 1677.54,-649.689 1677.54,-81 1241.54,-81"/>
<text text-anchor="middle" x="1459.54" y="-634.489" font-family="Times,serif" font-size="14.00">Official Law Branch</text>
</g>
<!-- fail -->
<g id="node1" class="node"><title>fail</title>
<polygon fill="none" stroke="black" points="841.542,-317.344 747.542,-317.344 747.542,-223.344 841.542,-223.344 841.542,-317.344"/>
<polyline fill="none" stroke="black" points="759.542,-317.344 747.542,-305.344 "/>
<polyline fill="none" stroke="black" points="747.542,-235.344 759.542,-223.344 "/>
<polyline fill="none" stroke="black" points="829.542,-223.344 841.542,-235.344 "/>
<polyline fill="none" stroke="black" points="841.542,-305.344 829.542,-317.344 "/>
<text text-anchor="middle" x="794.542" y="-266.644" font-family="Times,serif" font-size="14.00">Proposal Fails</text>
</g>
<!-- final -->
<g id="node2" class="node"><title>final</title>
<ellipse fill="none" stroke="black" cx="633.542" cy="-270.344" rx="64.189" ry="64.189"/>
<polyline fill="none" stroke="black" points="676.1,-318.603 590.985,-318.603 "/>
<polyline fill="none" stroke="black" points="676.1,-222.086 590.985,-222.086 "/>
<text text-anchor="middle" x="633.542" y="-266.644" font-family="Times,serif" font-size="14.00">Final Adoption</text>
</g>
<!-- submit -->
<g id="node27" class="node"><title>submit</title>
<polygon fill="#aaffaa" stroke="#aaffaa" points="1225.54,-125 1103.54,-125 1103.54,-89 1225.54,-89 1225.54,-125"/>
<text text-anchor="middle" x="1164.54" y="-103.3" font-family="Times,serif" font-size="14.00">Certify and Submit</text>
</g>
<!-- final&#45;&gt;submit -->
<g id="edge44" class="edge"><title>final&#45;&gt;submit</title>
<path fill="none" stroke="green" d="M685.173,-231.67C701.486,-221.605 720.088,-211.896 738.542,-206 889.691,-157.706 950.583,-245.738 1094.54,-179 1116.07,-169.019 1134.62,-149.364 1147.2,-133.261"/>
<polygon fill="green" stroke="green" points="1150.02,-135.333 1153.22,-125.233 1144.42,-131.133 1150.02,-135.333"/>
</g>
<!-- start -->
<g id="node3" class="node"><title>start</title>
<polygon fill="none" stroke="black" points="1259.54,-1250.69 1179.61,-1232.69 1259.54,-1214.69 1339.48,-1232.69 1259.54,-1250.69"/>
<polyline fill="none" stroke="black" points="1191.32,-1235.32 1191.32,-1230.05 "/>
<polyline fill="none" stroke="black" points="1247.84,-1217.32 1271.25,-1217.32 "/>
<polyline fill="none" stroke="black" points="1327.77,-1230.05 1327.77,-1235.32 "/>
<polyline fill="none" stroke="black" points="1271.25,-1248.05 1247.84,-1248.05 "/>
<text text-anchor="middle" x="1259.54" y="-1228.99" font-family="Times,serif" font-size="14.00">Idea for Law</text>
</g>
<!-- write_draft -->
<g id="node24" class="node"><title>write_draft</title>
<polygon fill="#aaaaff" stroke="#aaaaff" points="1299.54,-1119.69 1219.54,-1119.69 1219.54,-1083.69 1299.54,-1083.69 1299.54,-1119.69"/>
<text text-anchor="middle" x="1259.54" y="-1097.99" font-family="Times,serif" font-size="14.00">Write Draft</text>
</g>
<!-- start&#45;&gt;write_draft -->
<g id="edge4" class="edge"><title>start&#45;&gt;write_draft</title>
<path fill="none" stroke="green" d="M1259.54,-1214.56C1259.54,-1192.97 1259.54,-1155.6 1259.54,-1130.04"/>
<polygon fill="green" stroke="green" points="1263.04,-1129.89 1259.54,-1119.89 1256.04,-1129.89 1263.04,-1129.89"/>
</g>
<!-- assign_committee -->
<g id="node4" class="node"><title>assign_committee</title>
<polygon fill="none" stroke="black" points="615.542,-1250.69 474.78,-1232.69 615.542,-1214.69 756.305,-1232.69 615.542,-1250.69"/>
<text text-anchor="middle" x="615.542" y="-1228.99" font-family="Times,serif" font-size="14.00">Committee Assignment?</text>
</g>
<!-- amend_proposal -->
<g id="node5" class="node"><title>amend_proposal</title>
<polygon fill="none" stroke="black" points="95.5423,-1119.69 37.7283,-1101.69 95.5423,-1083.69 153.356,-1101.69 95.5423,-1119.69"/>
<text text-anchor="middle" x="95.5423" y="-1097.99" font-family="Times,serif" font-size="14.00">Amend?</text>
</g>
<!-- assign_committee&#45;&gt;amend_proposal -->
<g id="edge8" class="edge"><title>assign_committee&#45;&gt;amend_proposal</title>
<path fill="none" stroke="black" d="M519.364,-1226.95C405.313,-1220.03 223.045,-1204.49 162.542,-1173.69 140.878,-1162.66 122.457,-1141.7 110.446,-1125.4"/>
<polygon fill="black" stroke="black" points="113.081,-1123.07 104.453,-1116.92 107.364,-1127.1 113.081,-1123.07"/>
<text text-anchor="middle" x="245.542" y="-1185.49" font-family="Times,serif" font-size="14.00">Yes</text>
</g>
<!-- emergency_message -->
<g id="node18" class="node"><title>emergency_message</title>
<polygon fill="none" stroke="black" points="615.542,-1119.69 489.693,-1101.69 615.542,-1083.69 741.391,-1101.69 615.542,-1119.69"/>
<text text-anchor="middle" x="615.542" y="-1097.99" font-family="Times,serif" font-size="14.00">Emergency Message?</text>
</g>
<!-- assign_committee&#45;&gt;emergency_message -->
<g id="edge9" class="edge"><title>assign_committee&#45;&gt;emergency_message</title>
<path fill="none" stroke="black" d="M615.542,-1214.56C615.542,-1192.97 615.542,-1155.6 615.542,-1130.04"/>
<polygon fill="black" stroke="black" points="619.042,-1129.89 615.542,-1119.89 612.042,-1129.89 619.042,-1129.89"/>
<text text-anchor="middle" x="624.042" y="-1185.49" font-family="Times,serif" font-size="14.00">No</text>
</g>
<!-- vote_committee -->
<g id="node6" class="node"><title>vote_committee</title>
<polygon fill="none" stroke="black" points="147.042,-988.689 36.0423,-988.689 36.0423,-952.689 147.042,-952.689 147.042,-988.689"/>
<text text-anchor="middle" x="91.5423" y="-966.989" font-family="Times,serif" font-size="14.00">Vote on Proposal</text>
</g>
<!-- amend_proposal&#45;&gt;vote_committee -->
<g id="edge11" class="edge"><title>amend_proposal&#45;&gt;vote_committee</title>
<path fill="none" stroke="green" d="M95.0194,-1083.82C94.3523,-1062.31 93.1899,-1024.82 92.3942,-999.162"/>
<polygon fill="green" stroke="green" points="95.8865,-998.856 92.0781,-988.969 88.8898,-999.073 95.8865,-998.856"/>
<text text-anchor="middle" x="103.042" y="-1054.49" font-family="Times,serif" font-size="14.00">No</text>
</g>
<!-- record_amendment -->
<g id="node25" class="node"><title>record_amendment</title>
<polygon fill="#aaaaff" stroke="#aaaaff" points="1445.54,-1119.69 1317.54,-1119.69 1317.54,-1083.69 1445.54,-1083.69 1445.54,-1119.69"/>
<text text-anchor="middle" x="1381.54" y="-1097.99" font-family="Times,serif" font-size="14.00">Record Amendment</text>
</g>
<!-- amend_proposal&#45;&gt;record_amendment -->
<g id="edge10" class="edge"><title>amend_proposal&#45;&gt;record_amendment</title>
<path fill="none" stroke="black" d="M104.332,-1116.99C115.365,-1134.47 136.091,-1162.15 162.542,-1173.69 258.585,-1215.57 1000.76,-1174.95 1105.54,-1174.69 1195.77,-1174.47 1225.15,-1208.13 1308.54,-1173.69 1330.96,-1164.43 1350.19,-1144.63 1363.28,-1128.13"/>
<polygon fill="black" stroke="black" points="1366.29,-1129.96 1369.55,-1119.88 1360.71,-1125.73 1366.29,-1129.96"/>
<text text-anchor="middle" x="1094.54" y="-1185.49" font-family="Times,serif" font-size="14.00">Yes</text>
</g>
<!-- adopt_committee -->
<g id="node7" class="node"><title>adopt_committee</title>
<polygon fill="none" stroke="black" points="89.5423,-857.689 26.1985,-839.689 89.5423,-821.689 152.886,-839.689 89.5423,-857.689"/>
<text text-anchor="middle" x="89.5423" y="-835.989" font-family="Times,serif" font-size="14.00">Adopted?</text>
</g>
<!-- vote_committee&#45;&gt;adopt_committee -->
<g id="edge15" class="edge"><title>vote_committee&#45;&gt;adopt_committee</title>
<path fill="none" stroke="green" d="M91.2767,-952.558C90.942,-930.969 90.3626,-893.601 89.9664,-868.041"/>
<polygon fill="green" stroke="green" points="93.4637,-867.834 89.809,-857.89 86.4645,-867.943 93.4637,-867.834"/>
</g>
<!-- adopt_committee&#45;&gt;fail -->
<g id="edge17" class="edge"><title>adopt_committee&#45;&gt;fail</title>
<path fill="none" stroke="red" d="M66.4908,-828.107C48.6657,-818.526 25.2757,-802.558 14.5423,-780.689 -4.64817,-741.589 -4.98977,-721.619 14.5423,-682.689 116.229,-480.011 210.688,-455.865 423.542,-377.689 456.567,-365.559 546.814,-373.316 581.542,-367.689 585.087,-367.114 703.295,-336.221 706.542,-334.689 717.448,-329.541 728.406,-323.003 738.707,-316.093"/>
<polygon fill="red" stroke="red" points="740.959,-318.791 747.191,-310.223 736.976,-313.035 740.959,-318.791"/>
<text text-anchor="middle" x="157.042" y="-530.489" font-family="Times,serif" font-size="14.00">No (Tabled)</text>
</g>
<!-- report_legislature -->
<g id="node8" class="node"><title>report_legislature</title>
<polygon fill="none" stroke="black" points="155.542,-726.689 23.5423,-726.689 23.5423,-690.689 155.542,-690.689 155.542,-726.689"/>
<text text-anchor="middle" x="89.5423" y="-704.989" font-family="Times,serif" font-size="14.00">Report to Legislature</text>
</g>
<!-- adopt_committee&#45;&gt;report_legislature -->
<g id="edge16" class="edge"><title>adopt_committee&#45;&gt;report_legislature</title>
<path fill="none" stroke="green" d="M89.5423,-821.558C89.5423,-799.969 89.5423,-762.601 89.5423,-737.041"/>
<polygon fill="green" stroke="green" points="93.0424,-736.89 89.5423,-726.89 86.0424,-736.89 93.0424,-736.89"/>
<text text-anchor="middle" x="100.542" y="-792.489" font-family="Times,serif" font-size="14.00">Yes</text>
</g>
<!-- report_legislature&#45;&gt;emergency_message -->
<g id="edge18" class="edge"><title>report_legislature&#45;&gt;emergency_message</title>
<path fill="none" stroke="black" d="M101.858,-726.727C142.096,-781.17 275.795,-952.615 426.542,-1042.69 464.949,-1065.64 513.245,-1080.25 551.402,-1089.07"/>
<polygon fill="black" stroke="black" points="550.852,-1092.54 561.375,-1091.3 552.378,-1085.7 550.852,-1092.54"/>
</g>
<!-- waiting_period -->
<g id="node9" class="node"><title>waiting_period</title>
<polygon fill="none" stroke="black" points="1195.04,-1119.69 1058.04,-1119.69 1058.04,-1083.69 1195.04,-1083.69 1195.04,-1119.69"/>
<text text-anchor="middle" x="1126.54" y="-1097.99" font-family="Times,serif" font-size="14.00">7 Day Waiting Period</text>
</g>
<!-- public_hearing -->
<g id="node10" class="node"><title>public_hearing</title>
<polygon fill="none" stroke="black" points="1191.04,-988.689 1062.04,-988.689 1062.04,-952.689 1191.04,-952.689 1191.04,-988.689"/>
<text text-anchor="middle" x="1126.54" y="-966.989" font-family="Times,serif" font-size="14.00">Hold Public Hearing</text>
</g>
<!-- waiting_period&#45;&gt;public_hearing -->
<g id="edge20" class="edge"><title>waiting_period&#45;&gt;public_hearing</title>
<path fill="none" stroke="black" d="M1126.54,-1083.56C1126.54,-1061.97 1126.54,-1024.6 1126.54,-999.041"/>
<polygon fill="black" stroke="black" points="1130.04,-998.89 1126.54,-988.89 1123.04,-998.89 1130.04,-998.89"/>
</g>
<!-- amend_legislature -->
<g id="node11" class="node"><title>amend_legislature</title>
<polygon fill="none" stroke="black" points="1134.54,-857.689 1076.73,-839.689 1134.54,-821.689 1192.36,-839.689 1134.54,-857.689"/>
<text text-anchor="middle" x="1134.54" y="-835.989" font-family="Times,serif" font-size="14.00">Amend?</text>
</g>
<!-- public_hearing&#45;&gt;amend_legislature -->
<g id="edge22" class="edge"><title>public_hearing&#45;&gt;amend_legislature</title>
<path fill="none" stroke="black" d="M1127.6,-952.558C1128.95,-930.85 1131.29,-893.185 1132.87,-867.616"/>
<polygon fill="black" stroke="black" points="1136.38,-867.677 1133.5,-857.48 1129.39,-867.244 1136.38,-867.677"/>
</g>
<!-- vote_legislature -->
<g id="node12" class="node"><title>vote_legislature</title>
<polygon fill="none" stroke="black" points="1089.04,-726.689 976.042,-726.689 976.042,-690.689 1089.04,-690.689 1089.04,-726.689"/>
<text text-anchor="middle" x="1032.54" y="-704.989" font-family="Times,serif" font-size="14.00">Legislature Votes</text>
</g>
<!-- amend_legislature&#45;&gt;vote_legislature -->
<g id="edge24" class="edge"><title>amend_legislature&#45;&gt;vote_legislature</title>
<path fill="none" stroke="green" d="M1123.63,-824.883C1106.75,-803.535 1074.04,-762.17 1052.76,-735.256"/>
<polygon fill="green" stroke="green" points="1055.23,-732.743 1046.29,-727.069 1049.74,-737.084 1055.23,-732.743"/>
<text text-anchor="middle" x="1113.04" y="-792.489" font-family="Times,serif" font-size="14.00">No</text>
</g>
<!-- amend_legislature&#45;&gt;record_amendment -->
<g id="edge23" class="edge"><title>amend_legislature&#45;&gt;record_amendment</title>
<path fill="none" stroke="black" d="M1144.18,-854.978C1156.57,-871.988 1179.83,-899.609 1207.54,-911.689 1241.8,-926.619 1386.97,-892.554 1420.54,-944.689 1444.12,-981.309 1433.25,-1001.03 1420.54,-1042.69 1417.02,-1054.24 1410.34,-1065.58 1403.49,-1075.12"/>
<polygon fill="black" stroke="black" points="1400.51,-1073.26 1397.24,-1083.33 1406.08,-1077.5 1400.51,-1073.26"/>
<text text-anchor="middle" x="1445.54" y="-966.989" font-family="Times,serif" font-size="14.00">Yes</text>
</g>
<!-- adopt_legislature -->
<g id="node13" class="node"><title>adopt_legislature</title>
<polygon fill="none" stroke="black" points="972.542,-595.689 909.199,-577.689 972.542,-559.689 1035.89,-577.689 972.542,-595.689"/>
<text text-anchor="middle" x="972.542" y="-573.989" font-family="Times,serif" font-size="14.00">Adopted?</text>
</g>
<!-- vote_legislature&#45;&gt;adopt_legislature -->
<g id="edge25" class="edge"><title>vote_legislature&#45;&gt;adopt_legislature</title>
<path fill="none" stroke="green" d="M1024.57,-690.558C1014.16,-668.172 995.858,-628.817 983.969,-603.257"/>
<polygon fill="green" stroke="green" points="986.998,-601.47 979.608,-593.879 980.651,-604.422 986.998,-601.47"/>
</g>
<!-- adopt_legislature&#45;&gt;fail -->
<g id="edge27" class="edge"><title>adopt_legislature&#45;&gt;fail</title>
<path fill="none" stroke="red" d="M967.572,-560.804C955.232,-522.756 920.677,-424.247 872.542,-352.689 865.563,-342.312 857.206,-332.047 848.595,-322.484"/>
<polygon fill="red" stroke="red" points="851.014,-319.945 841.657,-314.976 845.874,-324.696 851.014,-319.945"/>
<text text-anchor="middle" x="935.042" y="-443.489" font-family="Times,serif" font-size="14.00">No</text>
</g>
<!-- executive_review -->
<g id="node15" class="node"><title>executive_review</title>
<polygon fill="none" stroke="black" points="321.542,-1119.69 171.897,-1101.69 321.542,-1083.69 471.188,-1101.69 321.542,-1119.69"/>
<text text-anchor="middle" x="321.542" y="-1097.99" font-family="Times,serif" font-size="14.00">Executive Veto Authority?</text>
</g>
<!-- adopt_legislature&#45;&gt;executive_review -->
<g id="edge26" class="edge"><title>adopt_legislature&#45;&gt;executive_review</title>
<path fill="none" stroke="green" d="M931.981,-584.197C869.173,-595.261 755.542,-626.498 755.542,-707.689 755.542,-971.689 755.542,-971.689 755.542,-971.689 755.542,-1013.93 773.006,-1037.51 741.542,-1065.69 730.609,-1075.48 492.149,-1074.25 477.542,-1075.69 447.519,-1078.65 414.496,-1083.68 386.595,-1088.46"/>
<polygon fill="green" stroke="green" points="385.815,-1085.04 376.562,-1090.2 387.013,-1091.94 385.815,-1085.04"/>
<text text-anchor="middle" x="766.542" y="-835.989" font-family="Times,serif" font-size="14.00">Yes</text>
</g>
<!-- override -->
<g id="node14" class="node"><title>override</title>
<polygon fill="none" stroke="black" points="974.542,-1119.69 909.521,-1101.69 974.542,-1083.69 1039.56,-1101.69 974.542,-1119.69"/>
<text text-anchor="middle" x="974.542" y="-1097.99" font-family="Times,serif" font-size="14.00">Override?</text>
</g>
<!-- override&#45;&gt;fail -->
<g id="edge32" class="edge"><title>override&#45;&gt;fail</title>
<path fill="none" stroke="red" d="M952.995,-1089.44C919.449,-1070.19 858.542,-1027.56 858.542,-971.689 858.542,-971.689 858.542,-971.689 858.542,-402.689 858.542,-375.817 847.583,-348.693 834.734,-326.127"/>
<polygon fill="red" stroke="red" points="837.659,-324.198 829.538,-317.393 831.643,-327.777 837.659,-324.198"/>
<text text-anchor="middle" x="867.042" y="-661.489" font-family="Times,serif" font-size="14.00">No</text>
</g>
<!-- subject_to_referendum -->
<g id="node16" class="node"><title>subject_to_referendum</title>
<polygon fill="none" stroke="black" points="577.542,-988.689 435.942,-970.689 577.542,-952.689 719.143,-970.689 577.542,-988.689"/>
<text text-anchor="middle" x="577.542" y="-966.989" font-family="Times,serif" font-size="14.00">Mandatory Referendum?</text>
</g>
<!-- override&#45;&gt;subject_to_referendum -->
<g id="edge31" class="edge"><title>override&#45;&gt;subject_to_referendum</title>
<path fill="none" stroke="black" d="M945.948,-1091.5C927.711,-1086.01 903.466,-1079.41 881.542,-1075.69 821.788,-1065.55 803.589,-1083.12 745.542,-1065.69 692.292,-1049.7 637.305,-1014.79 605.325,-992.311"/>
<polygon fill="black" stroke="black" points="607.109,-989.284 596.936,-986.325 603.044,-994.982 607.109,-989.284"/>
<text text-anchor="middle" x="756.542" y="-1054.49" font-family="Times,serif" font-size="14.00">Yes</text>
</g>
<!-- executive_review&#45;&gt;subject_to_referendum -->
<g id="edge33" class="edge"><title>executive_review&#45;&gt;subject_to_referendum</title>
<path fill="none" stroke="black" d="M348.939,-1086.88C395.324,-1063.51 489.328,-1016.14 541.174,-990.015"/>
<polygon fill="black" stroke="black" points="542.988,-993.02 550.343,-985.395 539.837,-986.769 542.988,-993.02"/>
<text text-anchor="middle" x="428.042" y="-1054.49" font-family="Times,serif" font-size="14.00">No</text>
</g>
<!-- review_executive -->
<g id="node19" class="node"><title>review_executive</title>
<polygon fill="none" stroke="black" points="814.542,-1119.69 759.243,-1101.69 814.542,-1083.69 869.842,-1101.69 814.542,-1119.69"/>
<text text-anchor="middle" x="814.542" y="-1097.99" font-family="Times,serif" font-size="14.00">Vetoes?</text>
</g>
<!-- executive_review&#45;&gt;review_executive -->
<g id="edge28" class="edge"><title>executive_review&#45;&gt;review_executive</title>
<path fill="none" stroke="black" d="M345.77,-1116.88C375.491,-1134.55 428.041,-1162.69 477.542,-1173.69 536.764,-1186.85 695.451,-1199.09 750.542,-1173.69 772.07,-1163.76 789.38,-1142.75 800.542,-1125.98"/>
<polygon fill="black" stroke="black" points="803.712,-1127.51 806.099,-1117.19 797.796,-1123.77 803.712,-1127.51"/>
<text text-anchor="middle" x="689.542" y="-1185.49" font-family="Times,serif" font-size="14.00">Yes</text>
</g>
<!-- subject_to_permissive_referendum -->
<g id="node17" class="node"><title>subject_to_permissive_referendum</title>
<polygon fill="none" stroke="black" points="577.542,-857.689 435.942,-839.689 577.542,-821.689 719.143,-839.689 577.542,-857.689"/>
<text text-anchor="middle" x="577.542" y="-835.989" font-family="Times,serif" font-size="14.00">Permissive Referendum?</text>
</g>
<!-- subject_to_referendum&#45;&gt;subject_to_permissive_referendum -->
<g id="edge34" class="edge"><title>subject_to_referendum&#45;&gt;subject_to_permissive_referendum</title>
<path fill="none" stroke="black" d="M577.542,-952.558C577.542,-930.969 577.542,-893.601 577.542,-868.041"/>
<polygon fill="black" stroke="black" points="581.042,-867.89 577.542,-857.89 574.042,-867.89 581.042,-867.89"/>
<text text-anchor="middle" x="586.042" y="-923.489" font-family="Times,serif" font-size="14.00">No</text>
</g>
<!-- referendum -->
<g id="node22" class="node"><title>referendum</title>
<polygon fill="none" stroke="black" points="573.542,-508.689 439.542,-508.689 439.542,-472.689 573.542,-472.689 573.542,-508.689"/>
<text text-anchor="middle" x="506.542" y="-486.989" font-family="Times,serif" font-size="14.00">Conduct Referendum</text>
</g>
<!-- subject_to_referendum&#45;&gt;referendum -->
<g id="edge40" class="edge"><title>subject_to_referendum&#45;&gt;referendum</title>
<path fill="none" stroke="black" d="M517.835,-960.167C486.576,-952.221 450.024,-937.782 426.542,-911.689 404.691,-887.407 407.542,-873.354 407.542,-840.689 407.542,-840.689 407.542,-840.689 407.542,-576.689 407.542,-548.443 431.028,-527.547 455.121,-513.543"/>
<polygon fill="black" stroke="black" points="456.89,-516.565 463.983,-508.694 453.53,-510.424 456.89,-516.565"/>
<text text-anchor="middle" x="418.542" y="-704.989" font-family="Times,serif" font-size="14.00">Yes</text>
</g>
<!-- subject_to_permissive_referendum&#45;&gt;final -->
<g id="edge39" class="edge"><title>subject_to_permissive_referendum&#45;&gt;final</title>
<path fill="none" stroke="black" d="M607.242,-825.266C626.227,-815.351 650.098,-800.201 665.542,-780.689 686.398,-754.339 691.542,-743.293 691.542,-709.689 691.542,-709.689 691.542,-709.689 691.542,-402.689 691.542,-378.912 683.49,-354.619 673.387,-333.496"/>
<polygon fill="black" stroke="black" points="676.403,-331.703 668.786,-324.338 670.148,-334.845 676.403,-331.703"/>
<text text-anchor="middle" x="700.042" y="-530.489" font-family="Times,serif" font-size="14.00">No</text>
</g>
<!-- permissive_referendum_period -->
<g id="node20" class="node"><title>permissive_referendum_period</title>
<polygon fill="none" stroke="black" points="628.042,-726.689 485.042,-726.689 485.042,-690.689 628.042,-690.689 628.042,-726.689"/>
<text text-anchor="middle" x="556.542" y="-704.989" font-family="Times,serif" font-size="14.00">45 Day Waiting Period</text>
</g>
<!-- subject_to_permissive_referendum&#45;&gt;permissive_referendum_period -->
<g id="edge35" class="edge"><title>subject_to_permissive_referendum&#45;&gt;permissive_referendum_period</title>
<path fill="none" stroke="black" d="M574.797,-821.824C571.295,-800.311 565.192,-762.824 561.015,-737.162"/>
<polygon fill="black" stroke="black" points="564.417,-736.277 559.355,-726.969 557.508,-737.401 564.417,-736.277"/>
<text text-anchor="middle" x="582.542" y="-792.489" font-family="Times,serif" font-size="14.00">Yes</text>
</g>
<!-- emergency_message&#45;&gt;waiting_period -->
<g id="edge19" class="edge"><title>emergency_message&#45;&gt;waiting_period</title>
<path fill="none" stroke="black" d="M636.194,-1116.85C661.603,-1134.48 706.774,-1162.58 750.542,-1173.69 814.73,-1189.98 986.953,-1198.02 1048.54,-1173.69 1072.11,-1164.38 1092.86,-1144.3 1107.03,-1127.7"/>
<polygon fill="black" stroke="black" points="1109.79,-1129.85 1113.43,-1119.9 1104.38,-1125.41 1109.79,-1129.85"/>
<text text-anchor="middle" x="899.542" y="-1185.49" font-family="Times,serif" font-size="14.00">No</text>
</g>
<!-- emergency_message&#45;&gt;public_hearing -->
<g id="edge21" class="edge"><title>emergency_message&#45;&gt;public_hearing</title>
<path fill="none" stroke="black" d="M662.195,-1090.32C692.312,-1083.54 732.306,-1074.36 767.542,-1065.69 867.029,-1041.22 981.442,-1010.88 1053.85,-991.401"/>
<polygon fill="black" stroke="black" points="1055.03,-994.707 1063.78,-988.727 1053.22,-987.947 1055.03,-994.707"/>
<text text-anchor="middle" x="837.542" y="-1054.49" font-family="Times,serif" font-size="14.00">Yes</text>
</g>
<!-- review_executive&#45;&gt;override -->
<g id="edge30" class="edge"><title>review_executive&#45;&gt;override</title>
<path fill="none" stroke="black" d="M870.054,-1101.69C879.499,-1101.69 889.448,-1101.69 899.301,-1101.69"/>
<polygon fill="black" stroke="black" points="899.508,-1105.19 909.508,-1101.69 899.508,-1098.19 899.508,-1105.19"/>
<text text-anchor="middle" x="889.487" y="-1108.49" font-family="Times,serif" font-size="14.00">Yes</text>
</g>
<!-- review_executive&#45;&gt;subject_to_referendum -->
<g id="edge29" class="edge"><title>review_executive&#45;&gt;subject_to_referendum</title>
<path fill="none" stroke="black" d="M793.121,-1090.52C780.918,-1085.19 765.185,-1079.08 750.542,-1075.69 724.257,-1069.61 652.199,-1080.34 629.542,-1065.69 605.747,-1050.3 591.88,-1020.07 584.538,-998.031"/>
<polygon fill="black" stroke="black" points="587.819,-996.793 581.527,-988.269 581.13,-998.856 587.819,-996.793"/>
<text text-anchor="middle" x="638.042" y="-1054.49" font-family="Times,serif" font-size="14.00">No</text>
</g>
<!-- petition_received -->
<g id="node21" class="node"><title>petition_received</title>
<polygon fill="none" stroke="black" points="544.542,-595.689 435.283,-577.689 544.542,-559.689 653.802,-577.689 544.542,-595.689"/>
<text text-anchor="middle" x="544.542" y="-573.989" font-family="Times,serif" font-size="14.00">Petition Received?</text>
</g>
<!-- permissive_referendum_period&#45;&gt;petition_received -->
<g id="edge36" class="edge"><title>permissive_referendum_period&#45;&gt;petition_received</title>
<path fill="none" stroke="black" d="M554.949,-690.558C552.929,-668.85 549.426,-631.185 547.047,-605.616"/>
<polygon fill="black" stroke="black" points="550.516,-605.112 546.104,-595.48 543.546,-605.761 550.516,-605.112"/>
</g>
<!-- petition_received&#45;&gt;final -->
<g id="edge38" class="edge"><title>petition_received&#45;&gt;final</title>
<path fill="none" stroke="black" d="M555.01,-561.131C563.568,-547.753 575.384,-527.669 582.542,-508.689 602.674,-455.305 615.776,-392.012 623.653,-344.218"/>
<polygon fill="black" stroke="black" points="627.121,-344.692 625.255,-334.263 620.21,-343.58 627.121,-344.692"/>
<text text-anchor="middle" x="613.042" y="-443.489" font-family="Times,serif" font-size="14.00">No</text>
</g>
<!-- petition_received&#45;&gt;referendum -->
<g id="edge37" class="edge"><title>petition_received&#45;&gt;referendum</title>
<path fill="none" stroke="black" d="M537.395,-560.701C532.015,-548.666 524.523,-531.909 518.27,-517.921"/>
<polygon fill="black" stroke="black" points="521.456,-516.472 514.179,-508.771 515.065,-519.329 521.456,-516.472"/>
<text text-anchor="middle" x="539.542" y="-530.489" font-family="Times,serif" font-size="14.00">Yes</text>
</g>
<!-- referendum_result -->
<g id="node23" class="node"><title>referendum_result</title>
<polygon fill="none" stroke="black" points="506.542,-421.689 435.991,-403.689 506.542,-385.689 577.093,-403.689 506.542,-421.689"/>
<text text-anchor="middle" x="506.542" y="-399.989" font-family="Times,serif" font-size="14.00">Approved?</text>
</g>
<!-- referendum&#45;&gt;referendum_result -->
<g id="edge41" class="edge"><title>referendum&#45;&gt;referendum_result</title>
<path fill="none" stroke="black" d="M506.542,-472.488C506.542,-460.851 506.542,-445.236 506.542,-431.925"/>
<polygon fill="black" stroke="black" points="510.042,-431.864 506.542,-421.864 503.042,-431.864 510.042,-431.864"/>
</g>
<!-- referendum_result&#45;&gt;fail -->
<g id="edge42" class="edge"><title>referendum_result&#45;&gt;fail</title>
<path fill="none" stroke="red" d="M542.964,-394.869C569.566,-388.699 606.293,-379.223 637.542,-367.689 669.433,-355.918 677.299,-352.02 706.542,-334.689 717.276,-328.327 728.35,-321.014 738.87,-313.667"/>
<polygon fill="red" stroke="red" points="741.034,-316.424 747.17,-307.786 736.987,-310.712 741.034,-316.424"/>
<text text-anchor="middle" x="684.042" y="-356.489" font-family="Times,serif" font-size="14.00">No</text>
</g>
<!-- referendum_result&#45;&gt;final -->
<g id="edge43" class="edge"><title>referendum_result&#45;&gt;final</title>
<path fill="none" stroke="black" d="M520.134,-388.632C534.915,-373.345 559.444,-347.978 581.915,-324.737"/>
<polygon fill="black" stroke="black" points="584.689,-326.904 589.124,-317.282 579.657,-322.038 584.689,-326.904"/>
<text text-anchor="middle" x="566.542" y="-356.489" font-family="Times,serif" font-size="14.00">Yes</text>
</g>
<!-- write_draft&#45;&gt;assign_committee -->
<g id="edge7" class="edge"><title>write_draft&#45;&gt;assign_committee</title>
<path fill="none" stroke="green" d="M1251.53,-1119.77C1242.95,-1136.14 1227.8,-1160.28 1207.54,-1173.69 1170.23,-1198.38 1153.77,-1189.98 1109.54,-1196.69 983.392,-1215.84 837.49,-1224.55 737.13,-1228.48"/>
<polygon fill="green" stroke="green" points="736.813,-1224.99 726.954,-1228.87 737.08,-1231.99 736.813,-1224.99"/>
</g>
<!-- proposal -->
<g id="node26" class="node"><title>proposal</title>
<polygon fill="none" stroke="black" points="1408.1,-988.689 1264.04,-988.689 1226.98,-952.689 1371.04,-952.689 1408.1,-988.689"/>
<text text-anchor="middle" x="1317.54" y="-966.989" font-family="Times,serif" font-size="14.00">Proposed Law</text>
</g>
<!-- write_draft&#45;&gt;proposal -->
<g id="edge5" class="edge"><title>write_draft&#45;&gt;proposal</title>
<path fill="none" stroke="black" d="M1267.24,-1083.56C1277.08,-1061.68 1294.2,-1023.6 1305.7,-998.02"/>
<polygon fill="black" stroke="black" points="1308.9,-999.445 1309.81,-988.89 1302.52,-996.575 1308.9,-999.445"/>
</g>
<!-- record_amendment&#45;&gt;proposal -->
<g id="edge12" class="edge"><title>record_amendment&#45;&gt;proposal</title>
<path fill="none" stroke="black" d="M1373.04,-1083.56C1362.19,-1061.68 1343.3,-1023.6 1330.61,-998.02"/>
<polygon fill="black" stroke="black" points="1333.66,-996.292 1326.08,-988.89 1327.39,-999.403 1333.66,-996.292"/>
</g>
<!-- proposal&#45;&gt;amend_proposal -->
<g id="edge13" class="edge"><title>proposal&#45;&gt;amend_proposal</title>
<path fill="none" stroke="black" d="M1298.1,-988.752C1277.3,-1005.86 1242.54,-1031.25 1207.54,-1042.69 1040.8,-1097.16 988.833,-1059.23 813.542,-1065.69 741.25,-1068.35 233.633,-1062.29 162.542,-1075.69 150.464,-1077.96 137.707,-1082.22 126.603,-1086.58"/>
<polygon fill="black" stroke="black" points="125.247,-1083.35 117.33,-1090.4 127.909,-1089.83 125.247,-1083.35"/>
</g>
<!-- proposal&#45;&gt;amend_legislature -->
<g id="edge14" class="edge"><title>proposal&#45;&gt;amend_legislature</title>
<path fill="none" stroke="black" d="M1278.79,-952.626C1256.97,-942.206 1229.72,-927.806 1207.54,-911.689 1187.39,-897.045 1167.31,-877.012 1153.32,-861.958"/>
<polygon fill="black" stroke="black" points="1155.54,-859.201 1146.22,-854.173 1150.37,-863.919 1155.54,-859.201"/>
</g>
<!-- final_adopted -->
<g id="node30" class="node"><title>final_adopted</title>
<polygon fill="none" stroke="black" points="1451.56,-857.689 1267,-857.689 1219.52,-821.689 1404.08,-821.689 1451.56,-857.689"/>
<text text-anchor="middle" x="1335.54" y="-835.989" font-family="Times,serif" font-size="14.00">Final Adopted Law</text>
</g>
<!-- proposal&#45;&gt;final_adopted -->
<g id="edge45" class="edge"><title>proposal&#45;&gt;final_adopted</title>
<path fill="none" stroke="green" d="M1319.93,-952.558C1322.94,-930.969 1328.16,-893.601 1331.73,-868.041"/>
<polygon fill="green" stroke="green" points="1335.23,-868.277 1333.14,-857.89 1328.29,-867.31 1335.23,-868.277"/>
<text text-anchor="middle" x="1343.04" y="-923.489" font-family="Times,serif" font-size="14.00">branch</text>
</g>
<!-- current_law -->
<g id="node34" class="node"><title>current_law</title>
<polygon fill="none" stroke="black" points="1641.45,-508.689 1511.15,-508.689 1477.64,-472.689 1607.93,-472.689 1641.45,-508.689"/>
<text text-anchor="middle" x="1559.54" y="-486.989" font-family="Times,serif" font-size="14.00">Current Law</text>
</g>
<!-- proposal&#45;&gt;current_law -->
<g id="edge6" class="edge"><title>proposal&#45;&gt;current_law</title>
<path fill="none" stroke="green" d="M1387.3,-955.677C1414.31,-947.065 1443.5,-933.352 1463.54,-911.689 1485.98,-887.44 1485.54,-873.724 1485.54,-840.689 1485.54,-840.689 1485.54,-840.689 1485.54,-576.689 1485.54,-547.731 1510.28,-523.846 1531.14,-508.847"/>
<polygon fill="green" stroke="green" points="1386.04,-952.401 1377.46,-958.624 1388.05,-959.106 1386.04,-952.401"/>
<text text-anchor="middle" x="1520.54" y="-704.989" font-family="Times,serif" font-size="14.00">clone/branch</text>
</g>
<!-- submit&#45;&gt;final_adopted -->
<g id="edge46" class="edge"><title>submit&#45;&gt;final_adopted</title>
<path fill="none" stroke="green" d="M1175,-125.199C1191.45,-153.953 1221.54,-214.088 1221.54,-269.344 1221.54,-709.689 1221.54,-709.689 1221.54,-709.689 1221.54,-744.121 1230.72,-754.051 1252.54,-780.689 1263.89,-794.541 1279.35,-806.552 1293.85,-815.995"/>
<polygon fill="green" stroke="green" points="1292.37,-819.2 1302.71,-821.535 1296.08,-813.265 1292.37,-819.2"/>
</g>
<!-- receipt -->
<g id="node28" class="node"><title>receipt</title>
<polygon fill="#aaffaa" stroke="#aaffaa" points="1085.58,-125 998.025,-125 975.5,-89 1063.06,-89 1085.58,-125"/>
<text text-anchor="middle" x="1030.54" y="-103.3" font-family="Times,serif" font-size="14.00">Receipt</text>
</g>
<!-- file_receipt -->
<g id="node29" class="node"><title>file_receipt</title>
<polygon fill="#aaffaa" stroke="#aaffaa" points="1072.04,-52 989.042,-52 989.042,-16 1072.04,-16 1072.04,-52"/>
<text text-anchor="middle" x="1030.54" y="-30.3" font-family="Times,serif" font-size="14.00">File Receipt</text>
</g>
<!-- receipt&#45;&gt;file_receipt -->
<g id="edge54" class="edge"><title>receipt&#45;&gt;file_receipt</title>
<path fill="none" stroke="green" d="M1030.54,-88.8129C1030.54,-80.7895 1030.54,-71.0475 1030.54,-62.0691"/>
<polygon fill="green" stroke="green" points="1034.04,-62.0288 1030.54,-52.0288 1027.04,-62.0289 1034.04,-62.0288"/>
</g>
<!-- merge_request -->
<g id="node31" class="node"><title>merge_request</title>
<polygon fill="none" stroke="black" points="1413.54,-726.689 1261.54,-726.689 1261.54,-690.689 1413.54,-690.689 1413.54,-726.689"/>
<text text-anchor="middle" x="1337.54" y="-704.989" font-family="Times,serif" font-size="14.00">Generate Merge Request</text>
</g>
<!-- final_adopted&#45;&gt;merge_request -->
<g id="edge47" class="edge"><title>final_adopted&#45;&gt;merge_request</title>
<path fill="none" stroke="green" d="M1335.81,-821.558C1336.14,-799.969 1336.72,-762.601 1337.12,-737.041"/>
<polygon fill="green" stroke="green" points="1340.62,-736.943 1337.28,-726.89 1333.62,-736.834 1340.62,-736.943"/>
</g>
<!-- validate_state -->
<g id="node32" class="node"><title>validate_state</title>
<polygon fill="none" stroke="black" points="1395.54,-595.689 1285.54,-595.689 1285.54,-559.689 1395.54,-559.689 1395.54,-595.689"/>
<text text-anchor="middle" x="1340.54" y="-573.989" font-family="Times,serif" font-size="14.00">Validate Request</text>
</g>
<!-- merge_request&#45;&gt;validate_state -->
<g id="edge48" class="edge"><title>merge_request&#45;&gt;validate_state</title>
<path fill="none" stroke="green" d="M1337.94,-690.558C1338.44,-668.969 1339.31,-631.601 1339.91,-606.041"/>
<polygon fill="green" stroke="green" points="1343.41,-605.968 1340.14,-595.89 1336.41,-605.806 1343.41,-605.968"/>
</g>
<!-- valid_submission -->
<g id="node33" class="node"><title>valid_submission</title>
<polygon fill="none" stroke="black" points="1354.54,-508.689 1249.97,-490.689 1354.54,-472.689 1459.11,-490.689 1354.54,-508.689"/>
<text text-anchor="middle" x="1354.54" y="-486.989" font-family="Times,serif" font-size="14.00">Valid Submission</text>
</g>
<!-- validate_state&#45;&gt;valid_submission -->
<g id="edge1" class="edge"><title>validate_state&#45;&gt;valid_submission</title>
<path fill="none" stroke="green" d="M1343.38,-559.488C1345.32,-547.698 1347.93,-531.825 1350.14,-518.401"/>
<polygon fill="green" stroke="green" points="1353.64,-518.721 1351.81,-508.286 1346.73,-517.584 1353.64,-518.721"/>
</g>
<!-- fail_submission -->
<g id="node38" class="node"><title>fail_submission</title>
<polygon fill="none" stroke="black" points="1396.54,-421.689 1258.54,-421.689 1258.54,-385.689 1396.54,-385.689 1396.54,-421.689"/>
<text text-anchor="middle" x="1327.54" y="-399.989" font-family="Times,serif" font-size="14.00">Notify User of Failure</text>
</g>
<!-- valid_submission&#45;&gt;fail_submission -->
<g id="edge49" class="edge"><title>valid_submission&#45;&gt;fail_submission</title>
<path fill="none" stroke="black" d="M1349.34,-473.3C1345.6,-461.536 1340.48,-445.415 1336.14,-431.755"/>
<polygon fill="black" stroke="black" points="1339.37,-430.374 1333.01,-421.902 1332.7,-432.493 1339.37,-430.374"/>
<text text-anchor="middle" x="1352.04" y="-443.489" font-family="Times,serif" font-size="14.00">No</text>
</g>
<!-- execute_merge -->
<g id="node39" class="node"><title>execute_merge</title>
<polygon fill="none" stroke="black" points="1577.04,-421.689 1432.04,-421.689 1432.04,-385.689 1577.04,-385.689 1577.04,-421.689"/>
<text text-anchor="middle" x="1504.54" y="-399.989" font-family="Times,serif" font-size="14.00">Merge in Adopted Law</text>
</g>
<!-- valid_submission&#45;&gt;execute_merge -->
<g id="edge2" class="edge"><title>valid_submission&#45;&gt;execute_merge</title>
<path fill="none" stroke="green" d="M1377.65,-476.594C1401.08,-463.315 1437.77,-442.525 1465.68,-426.708"/>
<polygon fill="green" stroke="green" points="1467.44,-429.739 1474.41,-421.763 1463.98,-423.649 1467.44,-429.739"/>
<text text-anchor="middle" x="1454.54" y="-443.489" font-family="Times,serif" font-size="14.00">Yes</text>
</g>
<!-- current_law&#45;&gt;execute_merge -->
<g id="edge55" class="edge"><title>current_law&#45;&gt;execute_merge</title>
<path fill="none" stroke="green" d="M1542.92,-463.993C1534.09,-450.351 1523.48,-433.955 1515.66,-421.864"/>
<polygon fill="green" stroke="green" points="1540.04,-465.993 1548.41,-472.488 1545.92,-462.19 1540.04,-465.993"/>
</g>
<!-- publish -->
<g id="node35" class="node"><title>publish</title>
<polygon fill="none" stroke="black" points="1561.54,-288.344 1447.54,-288.344 1447.54,-252.344 1561.54,-252.344 1561.54,-288.344"/>
<text text-anchor="middle" x="1504.54" y="-266.644" font-family="Times,serif" font-size="14.00">Publish New Law</text>
</g>
<!-- ecm -->
<g id="node36" class="node"><title>ecm</title>
<polygon fill="none" stroke="black" points="1513.96,-125 1303.31,-125 1249.13,-89 1459.77,-89 1513.96,-125"/>
<text text-anchor="middle" x="1381.54" y="-103.3" font-family="Times,serif" font-size="14.00">Published Expressions</text>
</g>
<!-- publish&#45;&gt;ecm -->
<g id="edge51" class="edge"><title>publish&#45;&gt;ecm</title>
<path fill="none" stroke="green" d="M1491.38,-252.078C1469.65,-223.571 1426.16,-166.529 1400.91,-133.41"/>
<polygon fill="green" stroke="green" points="1403.46,-130.973 1394.61,-125.143 1397.89,-135.217 1403.46,-130.973"/>
</g>
<!-- send_receipt -->
<g id="node37" class="node"><title>send_receipt</title>
<polygon fill="none" stroke="black" points="1669.54,-125 1531.54,-125 1531.54,-89 1669.54,-89 1669.54,-125"/>
<text text-anchor="middle" x="1600.54" y="-103.3" font-family="Times,serif" font-size="14.00">Acknowledge Success</text>
</g>
<!-- publish&#45;&gt;send_receipt -->
<g id="edge52" class="edge"><title>publish&#45;&gt;send_receipt</title>
<path fill="none" stroke="green" d="M1514.82,-252.078C1531.71,-223.692 1565.43,-167.014 1585.17,-133.835"/>
<polygon fill="green" stroke="green" points="1588.24,-135.526 1590.34,-125.143 1582.22,-131.947 1588.24,-135.526"/>
</g>
<!-- send_receipt&#45;&gt;receipt -->
<g id="edge53" class="edge"><title>send_receipt&#45;&gt;receipt</title>
<path fill="none" stroke="green" d="M1588.7,-125.217C1573.97,-146.027 1546.67,-178.948 1513.54,-192.5 1492.46,-201.125 1124.23,-202.038 1103.54,-192.5 1077.57,-180.522 1057.41,-154.237 1044.92,-133.952"/>
<polygon fill="green" stroke="green" points="1047.81,-131.971 1039.73,-125.127 1041.78,-135.521 1047.81,-131.971"/>
</g>
<!-- fail_submission&#45;&gt;submit -->
<g id="edge50" class="edge"><title>fail_submission&#45;&gt;submit</title>
<path fill="none" stroke="black" d="M1322.37,-385.531C1310.53,-347.751 1279.1,-255.308 1235.54,-187 1222.79,-167.007 1204.94,-147.167 1190.32,-132.371"/>
<polygon fill="black" stroke="black" points="1192.58,-129.682 1183.02,-125.119 1187.65,-134.649 1192.58,-129.682"/>
</g>
<!-- execute_merge&#45;&gt;publish -->
<g id="edge3" class="edge"><title>execute_merge&#45;&gt;publish</title>
<path fill="none" stroke="green" d="M1504.54,-385.518C1504.54,-363.394 1504.54,-324.677 1504.54,-298.533"/>
<polygon fill="green" stroke="green" points="1508.04,-298.519 1504.54,-288.519 1501.04,-298.52 1508.04,-298.519"/>
</g>
</g>
</svg>
