<?xml version="1.0" encoding="UTF-8" standalone="no"?>
<!DOCTYPE svg PUBLIC "-//W3C//DTD SVG 1.1//EN"
 "http://www.w3.org/Graphics/SVG/1.1/DTD/svg11.dtd">
<!-- Generated by graphviz version 2.38.0 (20140413.2041)
 -->
<!-- Title: G Pages: 1 -->
<svg width="392pt" height="402pt"
 viewBox="0.00 0.00 392.00 402.00" xmlns="http://www.w3.org/2000/svg" xmlns:xlink="http://www.w3.org/1999/xlink">
<g id="graph0" class="graph" transform="scale(1 1) rotate(0) translate(4 398)">
<title>G</title>
<polygon fill="white" stroke="none" points="-4,4 -4,-398 388,-398 388,4 -4,4"/>
<g id="clust1" class="cluster"><title>cluster_0</title>
<polygon fill="lightgrey" stroke="lightgrey" points="32,-311 32,-386 285,-386 285,-311 32,-311"/>
<text text-anchor="middle" x="158.5" y="-370.8" font-family="Times,serif" font-size="14.00">Canonical Repository (public, state&#45;hosted)</text>
</g>
<g id="clust2" class="cluster"><title>cluster_1</title>
<polygon fill="none" stroke="black" points="17,-203 17,-278 316,-278 316,-203 17,-203"/>
<text text-anchor="middle" x="166.5" y="-262.8" font-family="Times,serif" font-size="14.00">Local Legislature Repository (public, state or local)</text>
</g>
<g id="clust3" class="cluster"><title>cluster_2</title>
<polygon fill="none" stroke="black" points="8,-8 8,-170 376,-170 376,-8 8,-8"/>
<text text-anchor="middle" x="192" y="-154.8" font-family="Times,serif" font-size="14.00">Local Clerk&#39;s Working Repository</text>
</g>
<!-- current_master -->
<g id="node1" class="node"><title>current_master</title>
<ellipse fill="white" stroke="white" cx="158" cy="-337" rx="87.9851" ry="18"/>
<text text-anchor="middle" x="158" y="-333.3" font-family="Times,serif" font-size="14.00">master (Current Law)</text>
</g>
<!-- proposed_master -->
<g id="node2" class="node"><title>proposed_master</title>
<ellipse fill="none" stroke="black" cx="134" cy="-229" rx="86.3847" ry="18"/>
<text text-anchor="middle" x="134" y="-225.3" font-family="Times,serif" font-size="14.00">master (Public Draft)</text>
</g>
<!-- current_master&#45;&gt;proposed_master -->
<g id="edge1" class="edge"><title>current_master&#45;&gt;proposed_master</title>
<path fill="none" stroke="black" d="M109.297,-322.028C99.6673,-316.974 90.7657,-310.159 85,-301 74.74,-284.702 87.1493,-266.864 102.043,-253.145"/>
<polygon fill="black" stroke="black" points="104.631,-255.537 109.952,-246.376 100.079,-250.219 104.631,-255.537"/>
<text text-anchor="middle" x="136" y="-289.8" font-family="Times,serif" font-size="14.00">fork (propose law)</text>
</g>
<!-- proposed_master&#45;&gt;current_master -->
<g id="edge2" class="edge"><title>proposed_master&#45;&gt;current_master</title>
<path fill="none" stroke="black" d="M156.294,-246.534C167.824,-256.519 180.76,-270.33 187,-286 190.309,-294.309 187.799,-302.893 183.12,-310.553"/>
<polygon fill="black" stroke="black" points="179.972,-308.925 176.851,-319.049 185.605,-313.081 179.972,-308.925"/>
<text text-anchor="middle" x="253" y="-289.8" font-family="Times,serif" font-size="14.00">pull request (adopt law)</text>
</g>
<!-- clerk_master -->
<g id="node3" class="node"><title>clerk_master</title>
<ellipse fill="none" stroke="black" cx="159" cy="-121" rx="117.779" ry="18"/>
<text text-anchor="middle" x="159" y="-117.3" font-family="Times,serif" font-size="14.00">master (Pending Public Draft)</text>
</g>
<!-- proposed_master&#45;&gt;clerk_master -->
<g id="edge3" class="edge"><title>proposed_master&#45;&gt;clerk_master</title>
<path fill="none" stroke="black" d="M100.132,-212.217C86.3643,-203.413 75.1234,-191.504 82,-178 89.199,-163.863 101.823,-152.455 114.792,-143.717"/>
<polygon fill="black" stroke="black" points="116.71,-146.645 123.311,-138.358 112.983,-140.72 116.71,-146.645"/>
<text text-anchor="middle" x="136.5" y="-181.8" font-family="Times,serif" font-size="14.00">clone (propose law)</text>
</g>
<!-- clerk_master&#45;&gt;proposed_master -->
<g id="edge6" class="edge"><title>clerk_master&#45;&gt;proposed_master</title>
<path fill="none" stroke="black" d="M175.764,-139.042C188.043,-153.682 200.968,-175.183 191,-193 188.094,-198.194 184.068,-202.711 179.485,-206.614"/>
<polygon fill="black" stroke="black" points="177.32,-203.862 171.348,-212.614 181.474,-209.496 177.32,-203.862"/>
<text text-anchor="middle" x="257" y="-181.8" font-family="Times,serif" font-size="14.00">push (publish changes)</text>
</g>
<!-- clerk_working -->
<g id="node4" class="node"><title>clerk_working</title>
<ellipse fill="none" stroke="black" cx="147" cy="-34" rx="94.4839" ry="18"/>
<text text-anchor="middle" x="147" y="-30.3" font-family="Times,serif" font-size="14.00">working (Private Draft)</text>
</g>
<!-- clerk_master&#45;&gt;clerk_working -->
<g id="edge4" class="edge"><title>clerk_master&#45;&gt;clerk_working</title>
<path fill="none" stroke="black" d="M85.1709,-106.951C62.5562,-101.355 41.817,-94.0075 35,-85 21.3264,-66.9327 38.3693,-55.2465 62.9563,-47.7582"/>
<polygon fill="black" stroke="black" points="63.9805,-51.1066 72.7007,-45.0892 62.1313,-44.3553 63.9805,-51.1066"/>
<text text-anchor="middle" x="98.5" y="-73.8" font-family="Times,serif" font-size="14.00">branch (apply changes)</text>
</g>
<!-- clerk_working&#45;&gt;clerk_master -->
<g id="edge5" class="edge"><title>clerk_working&#45;&gt;clerk_master</title>
<path fill="none" stroke="black" d="M155.917,-51.9956C158.396,-57.5768 160.751,-63.9127 162,-70 163.497,-77.2954 163.657,-85.3053 163.207,-92.7352"/>
<polygon fill="black" stroke="black" points="159.72,-92.4267 162.24,-102.718 166.688,-93.1019 159.72,-92.4267"/>
<text text-anchor="middle" x="255" y="-73.8" font-family="Times,serif" font-size="14.00">merge &#45;&#45;squash (publish changes)</text>
</g>
</g>
</svg>
