<?xml version="1.0" encoding="UTF-8" standalone="no"?>
<!DOCTYPE svg PUBLIC "-//W3C//DTD SVG 1.1//EN"
 "http://www.w3.org/Graphics/SVG/1.1/DTD/svg11.dtd">
<!-- Generated by graphviz version 2.38.0 (20140413.2041)
 -->
<!-- Title: %3 Pages: 1 -->
<svg width="216pt" height="98pt"
 viewBox="0.00 0.00 215.58 98.00" xmlns="http://www.w3.org/2000/svg" xmlns:xlink="http://www.w3.org/1999/xlink">
<g id="graph0" class="graph" transform="scale(1 1) rotate(0) translate(4 94)">
<title>%3</title>
<polygon fill="white" stroke="none" points="-4,4 -4,-94 211.585,-94 211.585,4 -4,4"/>
<!-- Design -->
<g id="node1" class="node"><title>Design</title>
<ellipse fill="none" stroke="black" cx="40.2964" cy="-72" rx="40.0939" ry="18"/>
<text text-anchor="middle" x="40.2964" y="-68.3" font-family="Arial" font-size="14.00">Design</text>
</g>
<!-- Develop -->
<g id="node2" class="node"><title>Develop</title>
<ellipse fill="none" stroke="black" cx="162.089" cy="-72" rx="45.4919" ry="18"/>
<text text-anchor="middle" x="162.089" y="-68.3" font-family="Arial" font-size="14.00">Develop</text>
</g>
<!-- Design&#45;&gt;Develop -->
<g id="edge1" class="edge"><title>Design&#45;&gt;Develop</title>
<path fill="none" stroke="black" d="M80.8529,-72C88.8957,-72 97.4937,-72 105.964,-72"/>
<polygon fill="black" stroke="black" points="106.186,-75.5001 116.186,-72 106.186,-68.5001 106.186,-75.5001"/>
</g>
<!-- Deploy -->
<g id="node4" class="node"><title>Deploy</title>
<ellipse fill="none" stroke="black" cx="40.2964" cy="-18" rx="40.0939" ry="18"/>
<text text-anchor="middle" x="40.2964" y="-14.3" font-family="Arial" font-size="14.00">Deploy</text>
</g>
<!-- Design&#45;&gt;Deploy -->
<g id="edge4" class="edge"><title>Design&#45;&gt;Deploy</title>
<path fill="none" stroke="black" d="M40.2964,-43.5865C40.2964,-41.1046 40.2964,-38.6226 40.2964,-36.1406"/>
<polygon fill="black" stroke="black" points="36.7965,-43.7901 40.2964,-53.7902 43.7965,-43.7902 36.7965,-43.7901"/>
</g>
<!-- Test -->
<g id="node3" class="node"><title>Test</title>
<ellipse fill="none" stroke="black" cx="162.089" cy="-18" rx="28.6953" ry="18"/>
<text text-anchor="middle" x="162.089" y="-14.3" font-family="Arial" font-size="14.00">Test</text>
</g>
<!-- Develop&#45;&gt;Test -->
<g id="edge2" class="edge"><title>Develop&#45;&gt;Test</title>
<path fill="none" stroke="black" d="M162.089,-53.7902C162.089,-51.3082 162.089,-48.8262 162.089,-46.3443"/>
<polygon fill="black" stroke="black" points="165.589,-46.1406 162.089,-36.1406 158.589,-46.1407 165.589,-46.1406"/>
</g>
<!-- Deploy&#45;&gt;Test -->
<g id="edge3" class="edge"><title>Deploy&#45;&gt;Test</title>
<path fill="none" stroke="black" d="M91.1559,-18C105.567,-18 120.776,-18 133.317,-18"/>
<polygon fill="black" stroke="black" points="90.853,-14.5001 80.8529,-18 90.8529,-21.5001 90.853,-14.5001"/>
</g>
</g>
</svg>
