<?xml version="1.0" encoding="UTF-8" standalone="no"?>
<!DOCTYPE svg PUBLIC "-//W3C//DTD SVG 1.1//EN"
 "http://www.w3.org/Graphics/SVG/1.1/DTD/svg11.dtd">
<!-- Generated by graphviz version 2.38.0 (20140413.2041)
 -->
<!-- Title: %3 Pages: 1 -->
<svg width="139pt" height="260pt"
 viewBox="0.00 0.00 139.29 260.00" xmlns="http://www.w3.org/2000/svg" xmlns:xlink="http://www.w3.org/1999/xlink">
<g id="graph0" class="graph" transform="scale(1 1) rotate(0) translate(4 256)">
<title>%3</title>
<polygon fill="white" stroke="none" points="-4,4 -4,-256 135.288,-256 135.288,4 -4,4"/>
<!-- draft -->
<g id="node1" class="node"><title>draft</title>
<ellipse fill="none" stroke="black" cx="65.6442" cy="-234" rx="47.3916" ry="18"/>
<text text-anchor="middle" x="65.6442" y="-230.3" font-family="Times,serif" font-size="14.00">Draft Law</text>
</g>
<!-- proposed -->
<g id="node2" class="node"><title>proposed</title>
<ellipse fill="none" stroke="black" cx="65.6442" cy="-162" rx="61.99" ry="18"/>
<text text-anchor="middle" x="65.6442" y="-158.3" font-family="Times,serif" font-size="14.00">Proposed Law</text>
</g>
<!-- draft&#45;&gt;proposed -->
<g id="edge1" class="edge"><title>draft&#45;&gt;proposed</title>
<path fill="none" stroke="black" d="M65.6442,-215.697C65.6442,-207.983 65.6442,-198.712 65.6442,-190.112"/>
<polygon fill="black" stroke="black" points="69.1443,-190.104 65.6442,-180.104 62.1443,-190.104 69.1443,-190.104"/>
</g>
<!-- adopted -->
<g id="node3" class="node"><title>adopted</title>
<ellipse fill="none" stroke="black" cx="65.6442" cy="-90" rx="59.2899" ry="18"/>
<text text-anchor="middle" x="65.6442" y="-86.3" font-family="Times,serif" font-size="14.00">Adopted Law</text>
</g>
<!-- proposed&#45;&gt;adopted -->
<g id="edge2" class="edge"><title>proposed&#45;&gt;adopted</title>
<path fill="none" stroke="black" d="M65.6442,-143.697C65.6442,-135.983 65.6442,-126.712 65.6442,-118.112"/>
<polygon fill="black" stroke="black" points="69.1443,-118.104 65.6442,-108.104 62.1443,-118.104 69.1443,-118.104"/>
</g>
<!-- submitted -->
<g id="node4" class="node"><title>submitted</title>
<ellipse fill="none" stroke="black" cx="65.6442" cy="-18" rx="65.7887" ry="18"/>
<text text-anchor="middle" x="65.6442" y="-14.3" font-family="Times,serif" font-size="14.00">Submitted Law</text>
</g>
<!-- adopted&#45;&gt;submitted -->
<g id="edge3" class="edge"><title>adopted&#45;&gt;submitted</title>
<path fill="none" stroke="black" d="M65.6442,-71.6966C65.6442,-63.9827 65.6442,-54.7125 65.6442,-46.1124"/>
<polygon fill="black" stroke="black" points="69.1443,-46.1043 65.6442,-36.1043 62.1443,-46.1044 69.1443,-46.1043"/>
</g>
</g>
</svg>
