<?xml version="1.0" encoding="UTF-8" standalone="no"?>
<!DOCTYPE svg PUBLIC "-//W3C//DTD SVG 1.1//EN"
 "http://www.w3.org/Graphics/SVG/1.1/DTD/svg11.dtd">
<!-- Generated by graphviz version 2.38.0 (20140413.2041)
 -->
<!-- Title: %3 Pages: 1 -->
<svg width="214pt" height="98pt"
 viewBox="0.00 0.00 214.28 98.00" xmlns="http://www.w3.org/2000/svg" xmlns:xlink="http://www.w3.org/1999/xlink">
<g id="graph0" class="graph" transform="scale(1 1) rotate(0) translate(4 94)">
<title>%3</title>
<polygon fill="white" stroke="none" points="-4,4 -4,-94 210.285,-94 210.285,4 -4,4"/>
<!-- Author -->
<g id="node1" class="node"><title>Author</title>
<ellipse fill="none" stroke="black" cx="40.9464" cy="-72" rx="37.8943" ry="18"/>
<text text-anchor="middle" x="40.9464" y="-68.3" font-family="Arial" font-size="14.00">Author</text>
</g>
<!-- Share -->
<g id="node2" class="node"><title>Share</title>
<ellipse fill="none" stroke="black" cx="162.089" cy="-72" rx="35.194" ry="18"/>
<text text-anchor="middle" x="162.089" y="-68.3" font-family="Arial" font-size="14.00">Share</text>
</g>
<!-- Author&#45;&gt;Share -->
<g id="edge1" class="edge"><title>Author&#45;&gt;Share</title>
<path fill="none" stroke="black" d="M78.6652,-72C90.6304,-72 104.045,-72 116.521,-72"/>
<polygon fill="black" stroke="black" points="116.728,-75.5001 126.728,-72 116.728,-68.5001 116.728,-75.5001"/>
</g>
<!-- Publish -->
<g id="node4" class="node"><title>Publish</title>
<ellipse fill="none" stroke="black" cx="40.9464" cy="-18" rx="40.8928" ry="18"/>
<text text-anchor="middle" x="40.9464" y="-14.3" font-family="Arial" font-size="14.00">Publish</text>
</g>
<!-- Author&#45;&gt;Publish -->
<g id="edge4" class="edge"><title>Author&#45;&gt;Publish</title>
<path fill="none" stroke="black" d="M40.9464,-43.5865C40.9464,-41.1046 40.9464,-38.6226 40.9464,-36.1406"/>
<polygon fill="black" stroke="black" points="37.4465,-43.7901 40.9464,-53.7902 44.4465,-43.7902 37.4465,-43.7901"/>
</g>
<!-- Validate -->
<g id="node3" class="node"><title>Validate</title>
<ellipse fill="none" stroke="black" cx="162.089" cy="-18" rx="44.393" ry="18"/>
<text text-anchor="middle" x="162.089" y="-14.3" font-family="Arial" font-size="14.00">Validate</text>
</g>
<!-- Share&#45;&gt;Validate -->
<g id="edge2" class="edge"><title>Share&#45;&gt;Validate</title>
<path fill="none" stroke="black" d="M162.089,-53.7902C162.089,-51.3082 162.089,-48.8262 162.089,-46.3443"/>
<polygon fill="black" stroke="black" points="165.589,-46.1406 162.089,-36.1406 158.589,-46.1407 165.589,-46.1406"/>
</g>
<!-- Publish&#45;&gt;Validate -->
<g id="edge3" class="edge"><title>Publish&#45;&gt;Validate</title>
<path fill="none" stroke="black" d="M92.1423,-18C100.644,-18 109.406,-18 117.714,-18"/>
<polygon fill="black" stroke="black" points="91.9506,-14.5001 81.9505,-18 91.9505,-21.5001 91.9506,-14.5001"/>
</g>
</g>
</svg>
