<?xml version="1.0" encoding="UTF-8" standalone="no"?>
<!DOCTYPE svg PUBLIC "-//W3C//DTD SVG 1.1//EN"
 "http://www.w3.org/Graphics/SVG/1.1/DTD/svg11.dtd">
<!-- Generated by graphviz version 2.38.0 (20140413.2041)
 -->
<!-- Title: %3 Pages: 1 -->
<svg width="292pt" height="116pt"
 viewBox="0.00 0.00 291.98 116.00" xmlns="http://www.w3.org/2000/svg" xmlns:xlink="http://www.w3.org/1999/xlink">
<g id="graph0" class="graph" transform="scale(1 1) rotate(0) translate(4 112)">
<title>%3</title>
<polygon fill="white" stroke="none" points="-4,4 -4,-112 287.982,-112 287.982,4 -4,4"/>
<!-- Draft -->
<g id="node1" class="node"><title>Draft</title>
<ellipse fill="none" stroke="black" cx="51.9954" cy="-90" rx="30.5947" ry="18"/>
<text text-anchor="middle" x="51.9954" y="-86.3" font-family="Arial" font-size="14.00">Draft</text>
</g>
<!-- Proposed -->
<g id="node2" class="node"><title>Proposed</title>
<ellipse fill="none" stroke="black" cx="231.986" cy="-90" rx="51.9908" ry="18"/>
<text text-anchor="middle" x="231.986" y="-86.3" font-family="Arial" font-size="14.00">Proposed</text>
</g>
<!-- Draft&#45;&gt;Proposed -->
<g id="edge1" class="edge"><title>Draft&#45;&gt;Proposed</title>
<path fill="none" stroke="black" d="M82.787,-90C106.424,-90 140.257,-90 169.631,-90"/>
<polygon fill="black" stroke="black" points="169.811,-93.5001 179.811,-90 169.811,-86.5001 169.811,-93.5001"/>
<text text-anchor="middle" x="141.991" y="-93.8" font-family="Times,serif" font-size="14.00">share</text>
</g>
<!-- Published -->
<g id="node4" class="node"><title>Published</title>
<ellipse fill="none" stroke="black" cx="51.9954" cy="-18" rx="51.9908" ry="18"/>
<text text-anchor="middle" x="51.9954" y="-14.3" font-family="Arial" font-size="14.00">Published</text>
</g>
<!-- Draft&#45;&gt;Published -->
<g id="edge4" class="edge"><title>Draft&#45;&gt;Published</title>
<path fill="none" stroke="black" d="M51.9954,-61.5834C51.9954,-53.0257 51.9954,-43.869 51.9954,-36.1686"/>
<polygon fill="black" stroke="black" points="48.4955,-61.5867 51.9954,-71.5867 55.4955,-61.5868 48.4955,-61.5867"/>
<text text-anchor="middle" x="41.4954" y="-50.3" font-family="Times,serif" font-size="14.00">design</text>
</g>
<!-- Adopted -->
<g id="node3" class="node"><title>Adopted</title>
<ellipse fill="none" stroke="black" cx="231.986" cy="-18" rx="46.2923" ry="18"/>
<text text-anchor="middle" x="231.986" y="-14.3" font-family="Arial" font-size="14.00">Adopted</text>
</g>
<!-- Proposed&#45;&gt;Adopted -->
<g id="edge2" class="edge"><title>Proposed&#45;&gt;Adopted</title>
<path fill="none" stroke="black" d="M231.986,-71.5867C231.986,-63.9407 231.986,-54.8916 231.986,-46.4274"/>
<polygon fill="black" stroke="black" points="235.486,-46.1686 231.986,-36.1686 228.486,-46.1687 235.486,-46.1686"/>
<text text-anchor="middle" x="221.486" y="-50.3" font-family="Times,serif" font-size="14.00">validate</text>
</g>
<!-- Published&#45;&gt;Adopted -->
<g id="edge3" class="edge"><title>Published&#45;&gt;Adopted</title>
<path fill="none" stroke="black" d="M114.209,-18C137.681,-18 164.02,-18 185.734,-18"/>
<polygon fill="black" stroke="black" points="114,-14.5001 104,-18 114,-21.5001 114,-14.5001"/>
<text text-anchor="middle" x="141.991" y="-21.8" font-family="Times,serif" font-size="14.00">publish</text>
</g>
</g>
</svg>
