<?xml version="1.0" encoding="UTF-8" standalone="no"?>
<!DOCTYPE svg PUBLIC "-//W3C//DTD SVG 1.1//EN"
 "http://www.w3.org/Graphics/SVG/1.1/DTD/svg11.dtd">
<!-- Generated by graphviz version 2.38.0 (20140413.2041)
 -->
<!-- Title: %3 Pages: 1 -->
<svg width="1327pt" height="260pt"
 viewBox="0.00 0.00 1327.18 260.00" xmlns="http://www.w3.org/2000/svg" xmlns:xlink="http://www.w3.org/1999/xlink">
<g id="graph0" class="graph" transform="scale(1 1) rotate(0) translate(4 256)">
<title>%3</title>
<polygon fill="white" stroke="none" points="-4,4 -4,-256 1323.18,-256 1323.18,4 -4,4"/>
<!-- source -->
<g id="node1" class="node"><title>source</title>
<ellipse fill="none" stroke="black" cx="766.542" cy="-234" rx="82.5854" ry="18"/>
<text text-anchor="middle" x="766.542" y="-230.3" font-family="Arial" font-size="14.00">Legal Asciidoctor</text>
</g>
<!-- adoc -->
<g id="node2" class="node"><title>adoc</title>
<ellipse fill="none" stroke="black" cx="568.542" cy="-162" rx="92.0841" ry="18"/>
<text text-anchor="middle" x="568.542" y="-158.3" font-family="Arial" font-size="14.00">Generic Asciidoctor</text>
</g>
<!-- source&#45;&gt;adoc -->
<g id="edge1" class="edge"><title>source&#45;&gt;adoc</title>
<path fill="none" stroke="black" stroke-dasharray="5,2" d="M725.034,-218.326C694.718,-207.608 653.394,-192.998 620.824,-181.484"/>
<polygon fill="black" stroke="black" points="621.613,-178.05 611.018,-178.017 619.28,-184.65 621.613,-178.05"/>
</g>
<!-- akoma_ntoso -->
<g id="node3" class="node"><title>akoma_ntoso</title>
<ellipse fill="none" stroke="black" cx="766.542" cy="-162" rx="87.9851" ry="18"/>
<text text-anchor="middle" x="766.542" y="-158.3" font-family="Arial" font-size="14.00">Akoma Ntoso XML</text>
</g>
<!-- source&#45;&gt;akoma_ntoso -->
<g id="edge2" class="edge"><title>source&#45;&gt;akoma_ntoso</title>
<path fill="none" stroke="black" stroke-dasharray="5,2" d="M766.542,-215.697C766.542,-207.983 766.542,-198.712 766.542,-190.112"/>
<polygon fill="black" stroke="black" points="770.042,-190.104 766.542,-180.104 763.042,-190.104 770.042,-190.104"/>
</g>
<!-- uslm -->
<g id="node4" class="node"><title>uslm</title>
<ellipse fill="none" stroke="black" cx="1017.54" cy="-162" rx="144.874" ry="18"/>
<text text-anchor="middle" x="1017.54" y="-158.3" font-family="Arial" font-size="14.00">United States Legal Markup XML</text>
</g>
<!-- source&#45;&gt;uslm -->
<g id="edge3" class="edge"><title>source&#45;&gt;uslm</title>
<path fill="none" stroke="black" stroke-dasharray="5,2" d="M815.234,-219.42C854.119,-208.576 908.988,-193.274 951.775,-181.341"/>
<polygon fill="black" stroke="black" points="952.848,-184.676 961.54,-178.618 950.968,-177.933 952.848,-184.676"/>
</g>
<!-- docbook -->
<g id="node5" class="node"><title>docbook</title>
<ellipse fill="none" stroke="black" cx="95.5415" cy="-90" rx="70.6878" ry="18"/>
<text text-anchor="middle" x="95.5415" y="-86.3" font-family="Arial" font-size="14.00">DocBook XML</text>
</g>
<!-- adoc&#45;&gt;docbook -->
<g id="edge4" class="edge"><title>adoc&#45;&gt;docbook</title>
<path fill="none" stroke="black" d="M490.726,-152.259C411.248,-142.92 284.416,-126.882 175.542,-108 169.482,-106.949 163.183,-105.767 156.899,-104.529"/>
<polygon fill="black" stroke="black" points="157.567,-101.093 147.073,-102.547 156.183,-107.955 157.567,-101.093"/>
</g>
<!-- electronic_pdf -->
<g id="node7" class="node"><title>electronic_pdf</title>
<ellipse fill="none" stroke="black" cx="281.542" cy="-90" rx="96.6831" ry="18"/>
<text text-anchor="middle" x="281.542" y="-86.3" font-family="Arial" font-size="14.00">Web&#45;Optimized PDF</text>
</g>
<!-- adoc&#45;&gt;electronic_pdf -->
<g id="edge5" class="edge"><title>adoc&#45;&gt;electronic_pdf</title>
<path fill="none" stroke="black" d="M513.205,-147.503C465.866,-135.957 397.626,-119.313 347.467,-107.079"/>
<polygon fill="black" stroke="black" points="348.232,-103.663 337.687,-104.694 346.573,-110.464 348.232,-103.663"/>
</g>
<!-- epub -->
<g id="node8" class="node"><title>epub</title>
<ellipse fill="none" stroke="black" cx="568.542" cy="-90" rx="172.47" ry="18"/>
<text text-anchor="middle" x="568.542" y="-86.3" font-family="Arial" font-size="14.00">EPUB3 (Apple, Google Play e&#45;readers)</text>
</g>
<!-- adoc&#45;&gt;epub -->
<g id="edge6" class="edge"><title>adoc&#45;&gt;epub</title>
<path fill="none" stroke="black" d="M568.542,-143.697C568.542,-135.983 568.542,-126.712 568.542,-118.112"/>
<polygon fill="black" stroke="black" points="572.042,-118.104 568.542,-108.104 565.042,-118.104 572.042,-118.104"/>
</g>
<!-- mobi -->
<g id="node9" class="node"><title>mobi</title>
<ellipse fill="none" stroke="black" cx="873.542" cy="-90" rx="114.28" ry="18"/>
<text text-anchor="middle" x="873.542" y="-86.3" font-family="Arial" font-size="14.00">MOBI (Amazon e&#45;reader)</text>
</g>
<!-- adoc&#45;&gt;mobi -->
<g id="edge7" class="edge"><title>adoc&#45;&gt;mobi</title>
<path fill="none" stroke="black" d="M625.91,-147.834C675.782,-136.387 748.254,-119.754 801.922,-107.437"/>
<polygon fill="black" stroke="black" points="802.75,-110.838 811.714,-105.19 801.184,-104.016 802.75,-110.838"/>
</g>
<!-- html -->
<g id="node10" class="node"><title>html</title>
<ellipse fill="none" stroke="black" cx="1162.54" cy="-90" rx="156.772" ry="18"/>
<text text-anchor="middle" x="1162.54" y="-86.3" font-family="Arial" font-size="14.00">HTML5, ADA compliant web edition</text>
</g>
<!-- adoc&#45;&gt;html -->
<g id="edge8" class="edge"><title>adoc&#45;&gt;html</title>
<path fill="none" stroke="black" d="M634.465,-149.322C646.132,-147.421 658.18,-145.565 669.542,-144 705.358,-139.065 906.479,-117.782 1040.52,-103.733"/>
<polygon fill="black" stroke="black" points="1041.27,-107.174 1050.86,-102.651 1040.54,-100.212 1041.27,-107.174"/>
</g>
<!-- print_pdf -->
<g id="node6" class="node"><title>print_pdf</title>
<ellipse fill="none" stroke="black" cx="95.5415" cy="-18" rx="95.5831" ry="18"/>
<text text-anchor="middle" x="95.5415" y="-14.3" font-family="Arial" font-size="14.00">Print&#45;Optimized PDF</text>
</g>
<!-- docbook&#45;&gt;print_pdf -->
<g id="edge9" class="edge"><title>docbook&#45;&gt;print_pdf</title>
<path fill="none" stroke="black" d="M95.5415,-71.6966C95.5415,-63.9827 95.5415,-54.7125 95.5415,-46.1124"/>
<polygon fill="black" stroke="black" points="99.0416,-46.1043 95.5415,-36.1043 92.0416,-46.1044 99.0416,-46.1043"/>
</g>
</g>
</svg>
